<svg xmlns="http://www.w3.org/2000/svg" xmlns:svg="http://www.w3.org/2000/svg" xmlns:xlink="http://www.w3.org/1999/xlink" id="svg1" width="800" height="400" version="1.1" viewBox="0 0 229.916 114.958"><defs id="defs1"><linearGradient id="linearGradient45"><stop style="stop-color:#00222b;stop-opacity:1" id="stop45" offset="0"/><stop style="stop-color:#5df;stop-opacity:1" id="stop46" offset="1"/></linearGradient><linearGradient id="linearGradient46" x1="118.611" x2="118.611" y1="-10.432" y2="206.7" gradientUnits="userSpaceOnUse" xlink:href="#linearGradient45"/></defs><g id="layer1"><rect style="fill:url(#linearGradient46);fill-opacity:1;stroke-width:.287395" id="rect45" width="267.744" height="152.997" x="-11.977" y="-13.136"/><ellipse style="fill:none;stroke-width:.287395" id="path1" cx="94.271" cy="96.975" rx="93.884" ry="96.589"/><g id="g45" transform="matrix(0.80766539,0,0,0.80766539,29.286917,-35.368636)" style="fill:#d5f6ff"><g id="g41" transform="matrix(0.24660259,0,0,0.24660259,3.5714197,87.586279)" style="fill:#d5f6ff"><path id="rect29" style="fill:#d5f6ff;stroke-width:.329078" d="M 116.47983,25.9962 99.827455,41.509251 115.4076,58.225881 132.05997,42.71283 Z m 23.18757,24.878969 -16.65237,15.513051 36.44018,39.09829 16.65237,-15.513056 z"/><rect style="fill:#d5f6ff;stroke-width:.329078" id="rect35" width="87.456" height="22.758" x="98.418" y="-3.009" transform="matrix(0.68180265,0.73153616,-0.73169419,0.68163305,0,0)"/><rect style="fill:#d5f6ff;stroke-width:.329078" id="rect36" width="87.177" height="22.832" x="-67.427" y="-121.249" transform="matrix(-0.73169422,0.68163301,-0.68180261,-0.73153619,0,0)"/><path id="rect37" style="fill:#d5f6ff;stroke-width:.329078" d="m 69.233997,116.50502 -16.652374,15.51305 36.442867,39.10116 16.65237,-15.51305 z m 44.050293,47.2635 -16.652376,15.51305 15.577466,16.71375 16.65237,-15.51305 z"/><rect style="fill:#d5f6ff;stroke-width:.329078" id="rect38" width="87.456" height="22.758" x="-219.894" y="12.932" transform="matrix(-0.68180261,-0.73153619,0.73169422,-0.68163301,0,0)"/><rect style="fill:#d5f6ff;stroke-width:.329078" id="rect39" width="87.177" height="22.832" x="-51.486" y="197.063" transform="matrix(0.73169419,-0.68163305,0.68180265,0.73153616,0,0)"/></g><text xml:space="preserve" style="font-style:normal;font-variant:normal;font-weight:400;font-stretch:normal;font-size:41.385px;font-family:Broadway;-inkscape-font-specification:Broadway;fill:#d5f6ff;stroke-width:.57479" id="text44" x="49.224" y="130.195"><tspan id="tspan44" style="font-style:normal;font-variant:normal;font-weight:400;font-stretch:normal;font-family:'Century Gothic';-inkscape-font-specification:'Century Gothic';fill:#d5f6ff;stroke-width:.57479" x="49.224" y="130.195">kidd PH</tspan></text></g></g></svg>