<svg xmlns="http://www.w3.org/2000/svg" width="1600" height="1600" preserveAspectRatio="xMidYMid meet" version="1.0" viewBox="0 0 1200 1200"><metadata>Created by potrace 1.14, written by Peter Selinger 2001-2017</metadata><g fill="#000" stroke="none"><path d="M5778 11875 c-2 -1 -57 -5 -123 -9 -161 -9 -301 -21 -352 -30 -10 -2 -43 -6 -73 -10 -105 -13 -125 -16 -150 -21 -14 -2 -41 -7 -60 -10 -86 -14 -260 -48 -315 -62 -33 -8 -71 -17 -84 -20 -13 -2 -74 -18 -135 -35 -61 -16 -124 -34 -141 -38 -105 -26 -507 -170 -629 -225 -17 -7 -69 -30 -116 -50 -137 -61 -385 -186 -530 -270 -218 -125 -535 -339 -700 -472 -243 -196 -331 -274 -535 -478 -703 -705 -1208 -1564 -1485 -2525 -37 -130 -84 -318 -95 -382 -3 -17 -8 -34 -10 -37 -2 -4 -6 -27 -10 -51 -3 -25 -10 -61 -15 -80 -5 -19 -11 -54 -14 -77 -3 -22 -7 -52 -10 -65 -5 -22 -8 -40 -21 -143 -3 -27 -8 -64 -10 -81 -2 -16 -7 -59 -10 -95 -4 -35 -8 -75 -11 -89 -24 -148 -23 -816 1 -1045 3 -27 7 -66 9 -85 19 -187 46 -361 91 -585 37 -184 119 -485 189 -690 227 -669 556 -1264 1004 -1820 58 -71 113 -139 123 -150 563 -626 1133 -1065 1829 -1410 485 -241 1069 -434 1565 -519 17 -3 39 -7 50 -9 11 -3 45 -8 75 -12 30 -4 64 -9 75 -11 11 -2 40 -6 65 -9 25 -3 59 -8 75 -10 17 -2 57 -7 90 -10 33 -3 78 -8 100 -10 288 -29 825 -25 1130 9 136 15 151 17 175 21 14 3 48 7 75 10 28 4 57 8 65 10 8 3 33 7 55 11 34 5 101 17 215 40 76 15 249 57 345 84 61 16 119 32 131 35 31 7 375 124 409 139 17 7 46 19 65 26 40 14 34 11 205 86 390 170 765 386 1143 659 102 73 342 272 462 380 83 76 358 353 417 421 28 32 61 70 73 84 51 58 222 272 286 360 370 502 661 1070 857 1675 38 115 107 361 122 433 2 9 10 46 19 82 17 72 55 266 62 314 2 17 6 42 9 56 3 14 7 43 10 65 3 22 7 58 11 80 12 81 13 91 19 155 12 119 14 144 21 260 15 212 8 734 -11 885 -2 17 -7 57 -10 91 -3 33 -7 71 -9 85 -3 13 -7 51 -11 84 -4 32 -9 68 -11 80 -2 11 -6 34 -8 50 -13 101 -62 342 -102 500 -162 647 -422 1245 -782 1795 -91 140 -209 310 -222 320 -4 3 -27 32 -51 65 -24 33 -53 71 -64 84 -291 353 -561 623 -910 909 -25 21 -212 162 -241 182 -389 272 -744 474 -1099 624 -50 22 -139 58 -162 67 -13 5 -33 13 -45 19 -49 21 -256 94 -333 116 -5 2 -55 17 -110 34 -164 51 -421 115 -545 136 -14 2 -35 7 -48 9 -137 31 -447 71 -702 91 -81 6 -606 14 -612 9z" transform="translate(0.000000,1200.000000) scale(0.100000,-0.100000)"/></g></svg>